<?xml version="1.0" standalone="no"?>
<!DOCTYPE svg PUBLIC "-//W3C//DTD SVG 20010904//EN"
 "http://www.w3.org/TR/2001/REC-SVG-20010904/DTD/svg10.dtd">
<svg version="1.0" xmlns="http://www.w3.org/2000/svg"
 width="404.000000pt" height="404.000000pt" viewBox="0 0 404.000000 404.000000"
 preserveAspectRatio="xMidYMid meet">
<metadata>
Created by potrace 1.16, written by Peter Selinger 2001-2019
</metadata>
<g transform="translate(0.000000,404.000000) scale(0.100000,-0.100000)"
fill="#000000" stroke="none">
<path d="M1735 3964 c-352 -54 -692 -205 -960 -424 -93 -77 -257 -247 -326
-340 -196 -263 -325 -574 -373 -901 -21 -141 -21 -427 0 -568 48 -327 177
-638 373 -901 69 -93 233 -263 326 -340 271 -222 614 -373 966 -424 141 -21
427 -21 568 0 353 52 682 196 961 421 96 78 260 247 331 343 204 272 340 612
379 941 20 170 8 484 -24 636 -67 317 -204 607 -403 853 -78 97 -247 260 -344
332 -265 198 -576 327 -900 373 -132 19 -451 18 -574 -1z m451 -615 c220 -68
415 -235 490 -420 107 -262 53 -539 -145 -751 -45 -47 -81 -90 -81 -95 0 -4
28 -23 63 -42 381 -207 590 -500 652 -917 14 -96 14 -109 0 -130 l-15 -24
-1114 0 c-1111 0 -1113 0 -1140 21 -37 29 -34 69 19 255 49 171 110 311 170
389 130 170 290 315 426 386 44 23 83 48 85 54 3 7 -20 47 -51 90 -308 429
-282 785 77 1055 86 65 177 112 259 134 83 23 224 20 305 -5z"/>
</g>
</svg>
