<?xml version="1.0" standalone="no"?>
<!DOCTYPE svg PUBLIC "-//W3C//DTD SVG 20010904//EN"
 "http://www.w3.org/TR/2001/REC-SVG-20010904/DTD/svg10.dtd">
<svg version="1.0" xmlns="http://www.w3.org/2000/svg"
 width="412.000000pt" height="412.000000pt" viewBox="0 0 412.000000 412.000000"
 preserveAspectRatio="xMidYMid meet">
<metadata>
Created by potrace 1.16, written by Peter Selinger 2001-2019
</metadata>
<g transform="translate(0.000000,412.000000) scale(0.100000,-0.100000)"
fill="#000000" stroke="none">
<path d="M3305 3834 c-368 -69 -1149 -212 -1735 -319 -1099 -202 -1492 -275
-1499 -281 -13 -11 53 -50 327 -190 1341 -685 1580 -809 1603 -833 17 -18 42
-78 77 -187 267 -822 611 -1866 616 -1871 4 -4 13 0 21 8 18 18 1345 3742
1345 3775 0 22 -4 24 -42 23 -24 0 -344 -57 -713 -125z"/>
</g>
</svg>
