<?xml version="1.0" standalone="no"?>
<!DOCTYPE svg PUBLIC "-//W3C//DTD SVG 20010904//EN"
 "http://www.w3.org/TR/2001/REC-SVG-20010904/DTD/svg10.dtd">
<svg version="1.0" xmlns="http://www.w3.org/2000/svg"
 width="404.000000pt" height="404.000000pt" viewBox="0 0 404.000000 404.000000"
 preserveAspectRatio="xMidYMid meet">
<metadata>
Created by potrace 1.16, written by Peter Selinger 2001-2019
</metadata>
<g transform="translate(0.000000,404.000000) scale(0.100000,-0.100000)"
fill="#000000" stroke="none">
<path d="M549 3916 c-129 -36 -269 -138 -345 -253 -21 -32 -51 -93 -66 -136
l-28 -78 0 -1429 0 -1429 28 -78 c67 -188 228 -339 416 -389 76 -20 2856 -20
2932 0 133 35 272 136 350 253 21 32 51 93 66 136 l28 78 0 1001 c0 989 0
1001 -20 1034 -22 35 -91 74 -130 74 -38 0 -103 -37 -127 -73 l-23 -33 0 -935
c0 -962 -2 -1015 -40 -1089 -26 -50 -86 -105 -145 -132 l-50 -23 -1375 0
-1375 0 -50 23 c-97 45 -154 120 -174 227 -15 82 -15 2628 0 2710 20 107 77
182 174 227 l50 23 975 5 975 5 31 22 c86 61 83 192 -5 250 l-34 23 -996 -1
c-769 -1 -1006 -4 -1042 -13z"/>
<path d="M3335 3912 c-27 -10 -70 -31 -95 -46 -25 -15 -242 -226 -482 -468
-428 -431 -438 -442 -457 -502 -11 -33 -54 -187 -96 -340 -69 -252 -76 -283
-66 -317 22 -72 81 -119 149 -119 25 0 185 46 577 166 l90 27 446 446 c270
270 456 464 471 491 48 85 61 143 56 253 -3 89 -8 111 -35 170 -43 91 -129
177 -220 220 -62 29 -78 32 -178 34 -85 2 -121 -1 -160 -15z m235 -320 c57
-43 69 -128 25 -193 -14 -21 -29 -39 -33 -39 -4 0 -52 45 -106 99 -87 87 -98
102 -86 116 45 54 138 62 200 17z m-502 -730 c-208 -207 -281 -275 -308 -282
-19 -6 -82 -25 -140 -43 l-106 -34 41 149 41 149 270 270 269 269 102 -102
103 -103 -272 -273z"/>
<path d="M945 2290 c-11 -4 -30 -18 -42 -29 -77 -73 -67 -180 21 -245 26 -20
42 -21 411 -24 368 -3 386 -2 424 17 88 45 115 150 58 224 -52 68 -44 67 -469
66 -211 0 -392 -4 -403 -9z"/>
<path d="M920 1678 c-96 -66 -89 -210 13 -266 30 -16 105 -17 1087 -17 982 0
1057 1 1087 17 102 56 109 200 13 266 l-33 22 -1067 0 -1067 0 -33 -22z"/>
<path d="M945 1096 c-57 -25 -95 -85 -95 -148 0 -38 33 -96 68 -123 27 -20 43
-20 1102 -20 1059 0 1075 0 1102 20 91 68 88 189 -6 259 -27 21 -34 21 -1084
23 -866 2 -1062 0 -1087 -11z"/>
</g>
</svg>
