<svg xmlns="http://www.w3.org/2000/svg" xmlns:xlink="http://www.w3.org/1999/xlink" width="200" zoomAndPan="magnify" viewBox="0 0 150 149.999998" height="200" preserveAspectRatio="xMidYMid meet" version="1.0"><defs><g/><clipPath id="e07c320ab8"><path d="M 75.738281 25.183594 L 111.804688 25.183594 L 111.804688 102.488281 L 75.738281 102.488281 Z M 75.738281 25.183594 " clip-rule="nonzero"/></clipPath><clipPath id="f81434849c"><path d="M 38.078125 25 L 75 25 L 75 102.488281 L 38.078125 102.488281 Z M 38.078125 25 " clip-rule="nonzero"/></clipPath><clipPath id="59adba21d3"><path d="M 68 10.332031 L 82 10.332031 L 82 24 L 68 24 Z M 68 10.332031 " clip-rule="nonzero"/></clipPath></defs><path fill="#eb2c27" d="M 96.878906 37.507812 C 99.34375 39.578125 99.660156 43.25 97.59375 45.714844 C 95.523438 48.175781 91.847656 48.496094 89.386719 46.425781 C 86.925781 44.355469 86.605469 40.683594 88.675781 38.222656 C 90.742188 35.757812 94.417969 35.441406 96.878906 37.507812 " fill-opacity="1" fill-rule="nonzero"/><path fill="#eb2c27" d="M 103.65625 43.433594 C 103.726562 43.585938 103.710938 43.773438 103.59375 43.910156 C 103.480469 44.046875 103.300781 44.09375 103.136719 44.050781 L 103.097656 44.097656 L 101.8125 46.863281 L 100.316406 45.605469 L 102.816406 43.863281 L 102.859375 43.8125 C 102.785156 43.664062 102.804688 43.476562 102.917969 43.339844 C 103.03125 43.203125 103.214844 43.15625 103.375 43.199219 L 105.480469 40.691406 L 103.964844 37.984375 L 104.695312 40.429688 L 102.960938 39.847656 L 100.246094 43.082031 C 100.621094 40.671875 99.765625 38.132812 97.765625 36.453125 C 95.800781 34.800781 93.207031 34.386719 90.925781 35.117188 L 93.578125 31.960938 L 91.453125 28.039062 L 101.835938 31.664062 L 107.191406 41.265625 L 105.855469 40.816406 L 103.65625 43.433594 " fill-opacity="1" fill-rule="nonzero"/><g clip-path="url(#e07c320ab8)"><path fill="#eb2c27" d="M 89.113281 91.355469 C 89.113281 91.355469 79.847656 88.808594 79.777344 71.960938 C 79.746094 64.773438 81.035156 59.03125 78.789062 48.617188 C 76.546875 38.203125 75.042969 31.460938 76.1875 25.277344 C 76.1875 25.277344 78.25 39.054688 89.113281 45.566406 C 102.765625 53.746094 108.6875 62.625 108.328125 73.21875 C 108.328125 73.21875 104.0625 62.65625 94.253906 59.898438 C 94.253906 59.898438 93.488281 89.558594 111.917969 102.488281 C 111.917969 102.488281 96.195312 99.742188 86.0625 74.476562 C 86.0625 74.476562 84.625 86.328125 89.113281 91.355469 " fill-opacity="1" fill-rule="nonzero"/></g><path fill="#080150" d="M 53.117188 37.507812 C 50.65625 39.578125 50.335938 43.25 52.40625 45.714844 C 54.476562 48.175781 58.148438 48.496094 60.609375 46.425781 C 63.074219 44.355469 63.390625 40.683594 61.324219 38.222656 C 59.253906 35.757812 55.582031 35.441406 53.117188 37.507812 " fill-opacity="1" fill-rule="nonzero"/><path fill="#080150" d="M 46.34375 43.433594 C 46.273438 43.585938 46.289062 43.773438 46.402344 43.910156 C 46.519531 44.046875 46.699219 44.09375 46.859375 44.050781 L 46.902344 44.097656 L 48.1875 46.863281 L 49.683594 45.605469 L 47.183594 43.863281 L 47.140625 43.8125 C 47.210938 43.664062 47.195312 43.476562 47.082031 43.339844 C 46.964844 43.203125 46.785156 43.15625 46.625 43.199219 L 44.515625 40.691406 L 46.03125 37.984375 L 45.300781 40.429688 L 47.035156 39.847656 L 49.75 43.082031 C 49.378906 40.671875 50.234375 38.132812 52.230469 36.453125 C 54.195312 34.800781 56.792969 34.386719 59.070312 35.117188 L 56.421875 31.960938 L 58.542969 28.039062 L 48.164062 31.664062 L 42.808594 41.265625 L 44.144531 40.816406 L 46.34375 43.433594 " fill-opacity="1" fill-rule="nonzero"/><g clip-path="url(#f81434849c)"><path fill="#080150" d="M 60.882812 91.355469 C 60.882812 91.355469 70.148438 88.808594 70.222656 71.960938 C 70.25 64.773438 68.964844 59.03125 71.210938 48.617188 C 73.453125 38.203125 74.957031 31.460938 73.8125 25.277344 C 73.8125 25.277344 71.75 39.054688 60.882812 45.566406 C 47.234375 53.746094 41.3125 62.625 41.671875 73.21875 C 41.671875 73.21875 45.9375 62.65625 55.746094 59.898438 C 55.746094 59.898438 56.511719 89.558594 38.078125 102.488281 C 38.078125 102.488281 53.804688 99.742188 63.9375 74.476562 C 63.9375 74.476562 65.371094 86.328125 60.882812 91.355469 " fill-opacity="1" fill-rule="nonzero"/></g><g clip-path="url(#59adba21d3)"><path fill="#f6921e" d="M 74.75 22.519531 L 74.960938 23.894531 L 75.148438 22.515625 C 75.511719 19.8125 77.613281 17.675781 80.308594 17.265625 L 81.683594 17.054688 L 80.304688 16.867188 C 77.601562 16.503906 75.464844 14.402344 75.054688 11.707031 L 74.84375 10.332031 L 74.65625 11.710938 C 74.292969 14.410156 72.191406 16.550781 69.496094 16.960938 L 68.121094 17.171875 L 69.5 17.359375 C 72.203125 17.722656 74.339844 19.824219 74.75 22.519531 " fill-opacity="1" fill-rule="nonzero"/></g><g fill="#2d2d2d" fill-opacity="1"><g transform="translate(10.850081, 126.831007)"><g><path d="M 2.390625 0 L 2.390625 -16.421875 L 0.171875 -16.421875 L 0.171875 -18.921875 L 7.390625 -18.921875 L 7.390625 -16.421875 L 5.25 -16.421875 L 5.25 0 Z M 2.390625 0 "/></g></g></g><g fill="#2d2d2d" fill-opacity="1"><g transform="translate(18.40519, 126.831007)"><g><path d="M 1.421875 0 L 1.421875 -18.921875 L 7.765625 -18.921875 L 7.765625 -16.4375 L 4.296875 -16.4375 L 4.296875 -10.9375 L 7.59375 -10.9375 L 7.59375 -8.5 L 4.296875 -8.5 L 4.296875 -2.484375 L 7.890625 -2.484375 L 7.890625 0 Z M 1.421875 0 "/></g></g></g><g fill="#2d2d2d" fill-opacity="1"><g transform="translate(27.1747, 126.831007)"><g><path d="M 6.5 -5.6875 L 5.21875 -15.1875 L 5.1875 -15.1875 L 4.015625 -5.6875 Z M 0.5625 0 L 3.25 -18.921875 L 7.0625 -18.921875 L 9.9375 0 L 7.25 0 L 6.796875 -3.375 L 3.734375 -3.375 L 3.328125 0 Z M 0.5625 0 "/></g></g></g><g fill="#2d2d2d" fill-opacity="1"><g transform="translate(37.663722, 126.831007)"><g><path d="M 9.40625 -5.15625 C 9.40625 -3.332031 9.078125 -1.976562 8.421875 -1.09375 C 7.773438 -0.21875 6.75 0.21875 5.34375 0.21875 C 3.945312 0.21875 2.90625 -0.25 2.21875 -1.1875 C 1.53125 -2.125 1.1875 -3.46875 1.1875 -5.21875 L 1.1875 -13.46875 C 1.1875 -16.28125 1.921875 -18.039062 3.390625 -18.75 C 3.941406 -19.007812 4.601562 -19.140625 5.375 -19.140625 C 8.03125 -19.140625 9.359375 -17.460938 9.359375 -14.109375 L 9.359375 -11.5 L 6.578125 -11.5 L 6.578125 -13.921875 C 6.578125 -14.898438 6.492188 -15.597656 6.328125 -16.015625 C 6.160156 -16.429688 5.835938 -16.640625 5.359375 -16.640625 C 4.878906 -16.640625 4.546875 -16.414062 4.359375 -15.96875 C 4.171875 -15.53125 4.078125 -14.851562 4.078125 -13.9375 L 4.078125 -5.09375 C 4.078125 -4.070312 4.164062 -3.34375 4.34375 -2.90625 C 4.53125 -2.46875 4.859375 -2.25 5.328125 -2.25 C 5.804688 -2.25 6.132812 -2.472656 6.3125 -2.921875 C 6.488281 -3.367188 6.578125 -4.101562 6.578125 -5.125 L 6.578125 -7.84375 L 9.40625 -7.84375 Z M 9.40625 -5.15625 "/></g></g></g><g fill="#2d2d2d" fill-opacity="1"><g transform="translate(47.991543, 126.831007)"><g><path d="M 1.421875 0 L 1.421875 -18.921875 L 4.296875 -18.921875 L 4.296875 -11.265625 L 6.875 -11.265625 L 6.875 -18.921875 L 9.765625 -18.921875 L 9.765625 0 L 6.875 0 L 6.875 -8.796875 L 4.296875 -8.796875 L 4.296875 0 Z M 1.421875 0 "/></g></g></g><g fill="#2d2d2d" fill-opacity="1"><g transform="translate(59.16837, 126.831007)"><g><path d="M 1.421875 0 L 1.421875 -18.921875 L 7.765625 -18.921875 L 7.765625 -16.4375 L 4.296875 -16.4375 L 4.296875 -10.9375 L 7.59375 -10.9375 L 7.59375 -8.5 L 4.296875 -8.5 L 4.296875 -2.484375 L 7.890625 -2.484375 L 7.890625 0 Z M 1.421875 0 "/></g></g></g><g fill="#2d2d2d" fill-opacity="1"><g transform="translate(67.93788, 126.831007)"><g><path d="M 5.21875 -8.890625 L 4.296875 -8.9375 L 4.296875 0 L 1.421875 0 L 1.421875 -18.921875 L 6.1875 -18.921875 C 7.175781 -18.921875 7.910156 -18.71875 8.390625 -18.3125 C 8.878906 -17.914062 9.203125 -17.363281 9.359375 -16.65625 C 9.515625 -15.945312 9.59375 -15.015625 9.59375 -13.859375 C 9.59375 -12.710938 9.46875 -11.835938 9.21875 -11.234375 C 8.976562 -10.628906 8.53125 -10.222656 7.875 -10.015625 C 8.519531 -9.898438 8.972656 -9.457031 9.234375 -8.6875 C 9.492188 -7.925781 9.625 -6.332031 9.625 -3.90625 C 9.625 -1.476562 9.660156 -0.175781 9.734375 0 L 6.84375 0 C 6.769531 -0.144531 6.734375 -2.40625 6.734375 -6.78125 C 6.734375 -7.625 6.632812 -8.179688 6.4375 -8.453125 C 6.238281 -8.734375 5.832031 -8.878906 5.21875 -8.890625 Z M 4.3125 -11.171875 L 5.453125 -11.171875 C 5.828125 -11.171875 6.097656 -11.25 6.265625 -11.40625 C 6.441406 -11.570312 6.5625 -11.859375 6.625 -12.265625 C 6.695312 -12.671875 6.734375 -13.285156 6.734375 -14.109375 L 6.734375 -14.21875 C 6.734375 -15.25 6.644531 -15.921875 6.46875 -16.234375 C 6.300781 -16.546875 5.90625 -16.703125 5.28125 -16.703125 L 4.3125 -16.703125 Z M 4.3125 -11.171875 "/></g></g></g><g fill="#2d2d2d" fill-opacity="1"><g transform="translate(78.792298, 126.831007)"><g/></g></g><g fill="#2d2d2d" fill-opacity="1"><g transform="translate(82.736432, 126.831007)"><g><path d="M 1.40625 0 L 1.40625 -18.921875 L 7.90625 -18.921875 L 7.90625 -16.421875 L 4.296875 -16.421875 L 4.296875 -11.390625 L 7.640625 -11.390625 L 7.640625 -8.875 L 4.296875 -8.875 L 4.296875 0 Z M 1.40625 0 "/></g></g></g><g fill="#2d2d2d" fill-opacity="1"><g transform="translate(91.291003, 126.831007)"><g><path d="M 1.53125 0 L 1.53125 -18.921875 L 4.40625 -18.921875 L 4.40625 0 Z M 1.53125 0 "/></g></g></g><g fill="#2d2d2d" fill-opacity="1"><g transform="translate(97.223319, 126.831007)"><g><path d="M 1.421875 0 L 1.421875 -18.921875 L 3.671875 -18.921875 L 7.6875 -7.5625 L 7.484375 -12.734375 L 7.484375 -18.921875 L 10.078125 -18.921875 L 10.078125 0 L 8.03125 0 L 3.90625 -11.75 L 4.078125 -6.78125 L 4.078125 0 Z M 1.421875 0 "/></g></g></g><g fill="#2d2d2d" fill-opacity="1"><g transform="translate(108.71181, 126.831007)"><g><path d="M 4.296875 -2.234375 L 5.234375 -2.234375 C 5.765625 -2.234375 6.148438 -2.40625 6.390625 -2.75 C 6.628906 -3.09375 6.75 -3.722656 6.75 -4.640625 L 6.734375 -13.984375 C 6.734375 -14.960938 6.613281 -15.660156 6.375 -16.078125 C 6.132812 -16.492188 5.722656 -16.703125 5.140625 -16.703125 L 4.296875 -16.703125 Z M 1.40625 0 L 1.40625 -18.921875 L 5.65625 -18.921875 C 7.039062 -18.921875 8.046875 -18.507812 8.671875 -17.6875 C 9.304688 -16.863281 9.625 -15.65625 9.625 -14.0625 L 9.625 -5.53125 C 9.625 -3.625 9.304688 -2.222656 8.671875 -1.328125 C 8.046875 -0.441406 7.007812 0 5.5625 0 Z M 1.40625 0 "/></g></g></g><g fill="#2d2d2d" fill-opacity="1"><g transform="translate(119.512497, 126.831007)"><g><path d="M 1.421875 0 L 1.421875 -18.921875 L 7.765625 -18.921875 L 7.765625 -16.4375 L 4.296875 -16.4375 L 4.296875 -10.9375 L 7.59375 -10.9375 L 7.59375 -8.5 L 4.296875 -8.5 L 4.296875 -2.484375 L 7.890625 -2.484375 L 7.890625 0 Z M 1.421875 0 "/></g></g></g><g fill="#2d2d2d" fill-opacity="1"><g transform="translate(128.282007, 126.831007)"><g><path d="M 5.21875 -8.890625 L 4.296875 -8.9375 L 4.296875 0 L 1.421875 0 L 1.421875 -18.921875 L 6.1875 -18.921875 C 7.175781 -18.921875 7.910156 -18.71875 8.390625 -18.3125 C 8.878906 -17.914062 9.203125 -17.363281 9.359375 -16.65625 C 9.515625 -15.945312 9.59375 -15.015625 9.59375 -13.859375 C 9.59375 -12.710938 9.46875 -11.835938 9.21875 -11.234375 C 8.976562 -10.628906 8.53125 -10.222656 7.875 -10.015625 C 8.519531 -9.898438 8.972656 -9.457031 9.234375 -8.6875 C 9.492188 -7.925781 9.625 -6.332031 9.625 -3.90625 C 9.625 -1.476562 9.660156 -0.175781 9.734375 0 L 6.84375 0 C 6.769531 -0.144531 6.734375 -2.40625 6.734375 -6.78125 C 6.734375 -7.625 6.632812 -8.179688 6.4375 -8.453125 C 6.238281 -8.734375 5.832031 -8.878906 5.21875 -8.890625 Z M 4.3125 -11.171875 L 5.453125 -11.171875 C 5.828125 -11.171875 6.097656 -11.25 6.265625 -11.40625 C 6.441406 -11.570312 6.5625 -11.859375 6.625 -12.265625 C 6.695312 -12.671875 6.734375 -13.285156 6.734375 -14.109375 L 6.734375 -14.21875 C 6.734375 -15.25 6.644531 -15.921875 6.46875 -16.234375 C 6.300781 -16.546875 5.90625 -16.703125 5.28125 -16.703125 L 4.3125 -16.703125 Z M 4.3125 -11.171875 "/></g></g></g><g fill="#2d2d2d" fill-opacity="1"><g transform="translate(20.199056, 137.889549)"><g><path d="M 3.519531 0 L 3.519531 -0.476562 L 1.066406 -0.476562 L 1.066406 -2.257812 L 3.445312 -2.257812 L 3.445312 -2.742188 L 1.066406 -2.742188 L 1.066406 -4.519531 L 3.519531 -4.519531 L 3.519531 -4.996094 L 0.550781 -4.996094 L 0.550781 0 Z M 3.519531 0 "/></g></g></g><g fill="#2d2d2d" fill-opacity="1"><g transform="translate(25.136906, 137.889549)"><g><path d="M 4.429688 -2.5 C 4.429688 -2.859375 4.359375 -3.191406 4.226562 -3.5 C 4.09375 -3.808594 3.910156 -4.070312 3.683594 -4.292969 C 3.445312 -4.511719 3.175781 -4.679688 2.867188 -4.804688 C 2.550781 -4.929688 2.210938 -4.996094 1.859375 -4.996094 L 0.550781 -4.996094 L 0.550781 0 L 1.859375 0 C 2.210938 0 2.550781 -0.0585938 2.867188 -0.183594 C 3.175781 -0.308594 3.445312 -0.484375 3.683594 -0.707031 C 3.910156 -0.925781 4.09375 -1.183594 4.226562 -1.492188 C 4.359375 -1.800781 4.429688 -2.132812 4.429688 -2.5 Z M 3.933594 -2.5 C 3.933594 -1.925781 3.726562 -1.449219 3.328125 -1.074219 C 2.933594 -0.699219 2.445312 -0.515625 1.875 -0.515625 L 1.066406 -0.515625 L 1.066406 -4.484375 L 1.875 -4.484375 C 2.445312 -4.484375 2.933594 -4.292969 3.328125 -3.925781 C 3.726562 -3.542969 3.933594 -3.066406 3.933594 -2.5 Z M 3.933594 -2.5 "/></g></g></g><g fill="#2d2d2d" fill-opacity="1"><g transform="translate(30.765417, 137.889549)"><g><path d="M 4.167969 -1.652344 L 4.167969 -4.996094 L 3.652344 -4.996094 L 3.652344 -1.578125 C 3.652344 -1.375 3.617188 -1.207031 3.542969 -1.066406 C 3.328125 -0.652344 2.917969 -0.449219 2.308594 -0.449219 C 1.910156 -0.449219 1.59375 -0.535156 1.359375 -0.710938 C 1.085938 -0.910156 0.957031 -1.199219 0.957031 -1.578125 L 0.957031 -4.996094 L 0.441406 -4.996094 L 0.441406 -1.652344 C 0.441406 -1.109375 0.617188 -0.683594 0.96875 -0.375 C 1.300781 -0.0820312 1.75 0.0664062 2.308594 0.0664062 C 2.859375 0.0664062 3.300781 -0.0820312 3.636719 -0.375 C 3.992188 -0.683594 4.167969 -1.109375 4.167969 -1.652344 Z M 4.167969 -1.652344 "/></g></g></g><g fill="#2d2d2d" fill-opacity="1"><g transform="translate(36.239631, 137.889549)"><g><path d="M 5.136719 -1.527344 L 4.570312 -1.527344 C 4.394531 -1.207031 4.152344 -0.941406 3.84375 -0.75 C 3.535156 -0.550781 3.191406 -0.457031 2.820312 -0.457031 C 2.269531 -0.457031 1.800781 -0.652344 1.410156 -1.066406 C 1.027344 -1.457031 0.84375 -1.933594 0.84375 -2.492188 C 0.84375 -3.050781 1.027344 -3.527344 1.410156 -3.925781 C 1.585938 -4.109375 1.800781 -4.253906 2.042969 -4.367188 C 2.277344 -4.476562 2.511719 -4.535156 2.75 -4.535156 C 2.976562 -4.535156 3.175781 -4.503906 3.351562 -4.453125 C 3.886719 -4.292969 4.292969 -3.96875 4.5625 -3.476562 L 5.128906 -3.476562 C 4.9375 -3.945312 4.636719 -4.328125 4.21875 -4.621094 C 3.792969 -4.917969 3.328125 -5.0625 2.820312 -5.0625 C 2.125 -5.0625 1.535156 -4.804688 1.050781 -4.300781 C 0.824219 -4.0625 0.648438 -3.785156 0.523438 -3.476562 C 0.390625 -3.167969 0.332031 -2.835938 0.332031 -2.492188 C 0.332031 -1.785156 0.566406 -1.191406 1.050781 -0.691406 C 1.535156 -0.175781 2.125 0.0742188 2.820312 0.0742188 C 3.328125 0.0742188 3.792969 -0.0742188 4.226562 -0.367188 C 4.644531 -0.660156 4.945312 -1.042969 5.136719 -1.527344 Z M 5.136719 -1.527344 "/></g></g></g><g fill="#2d2d2d" fill-opacity="1"><g transform="translate(42.463292, 137.889549)"><g><path d="M 1.359375 -1.835938 L 2.269531 -4.136719 L 3.175781 -1.835938 Z M 4.460938 0 L 2.269531 -5.34375 L 0.0742188 0 L 0.632812 0 L 1.167969 -1.359375 L 3.367188 -1.359375 L 3.902344 0 Z M 4.460938 0 "/></g></g></g><g fill="#2d2d2d" fill-opacity="1"><g transform="translate(47.864033, 137.889549)"><g><path d="M 0.148438 -4.535156 L 1.359375 -4.535156 L 1.359375 -0.015625 L 1.875 -0.015625 L 1.875 -4.535156 L 3.085938 -4.535156 L 3.085938 -5.011719 L 0.148438 -5.011719 Z M 0.148438 -4.535156 "/></g></g></g><g fill="#2d2d2d" fill-opacity="1"><g transform="translate(51.964273, 137.889549)"><g><path d="M 1.066406 0 L 1.066406 -4.996094 L 0.550781 -4.996094 L 0.550781 0 Z M 1.066406 0 "/></g></g></g><g fill="#2d2d2d" fill-opacity="1"><g transform="translate(54.448065, 137.889549)"><g><path d="M 4.953125 -2.511719 C 4.953125 -1.941406 4.746094 -1.457031 4.351562 -1.058594 C 3.945312 -0.652344 3.460938 -0.457031 2.894531 -0.457031 C 2.328125 -0.457031 1.84375 -0.652344 1.449219 -1.058594 C 1.042969 -1.457031 0.84375 -1.941406 0.84375 -2.511719 C 0.84375 -3.070312 1.042969 -3.558594 1.449219 -3.960938 C 1.84375 -4.359375 2.328125 -4.5625 2.894531 -4.5625 C 3.460938 -4.5625 3.945312 -4.359375 4.351562 -3.960938 C 4.746094 -3.558594 4.953125 -3.070312 4.953125 -2.511719 Z M 5.46875 -2.511719 C 5.46875 -2.867188 5.394531 -3.195312 5.261719 -3.511719 C 5.128906 -3.820312 4.945312 -4.09375 4.710938 -4.328125 C 4.476562 -4.554688 4.203125 -4.738281 3.894531 -4.871094 C 3.578125 -5.003906 3.25 -5.078125 2.894531 -5.078125 C 2.542969 -5.078125 2.203125 -5.003906 1.894531 -4.871094 C 1.585938 -4.738281 1.316406 -4.554688 1.082031 -4.328125 C 0.84375 -4.09375 0.660156 -3.820312 0.527344 -3.511719 C 0.398438 -3.195312 0.332031 -2.867188 0.332031 -2.511719 C 0.332031 -2.160156 0.398438 -1.824219 0.527344 -1.515625 C 0.660156 -1.199219 0.84375 -0.925781 1.082031 -0.691406 C 1.316406 -0.457031 1.585938 -0.273438 1.894531 -0.140625 C 2.203125 -0.0078125 2.542969 0.0585938 2.894531 0.0585938 C 3.25 0.0585938 3.578125 -0.0078125 3.894531 -0.140625 C 4.203125 -0.273438 4.476562 -0.457031 4.710938 -0.691406 C 4.945312 -0.925781 5.128906 -1.199219 5.261719 -1.515625 C 5.394531 -1.824219 5.46875 -2.160156 5.46875 -2.511719 Z M 5.46875 -2.511719 "/></g></g></g><g fill="#2d2d2d" fill-opacity="1"><g transform="translate(61.11257, 137.889549)"><g><path d="M 1.066406 -3.683594 L 3.871094 0.308594 L 3.871094 -4.996094 L 3.359375 -4.996094 L 3.359375 -1.324219 L 0.550781 -5.3125 L 0.550781 0 L 1.066406 0 Z M 1.066406 -3.683594 "/></g></g></g><g fill="#2d2d2d" fill-opacity="1"><g transform="translate(66.403099, 137.889549)"><g/></g></g><g fill="#2d2d2d" fill-opacity="1"><g transform="translate(69.254266, 137.889549)"><g><path d="M 3.519531 -4.519531 L 3.519531 -4.996094 L 0.550781 -4.996094 L 0.550781 0 L 1.066406 0 L 1.066406 -2.257812 L 3.445312 -2.257812 L 3.445312 -2.742188 L 1.066406 -2.742188 L 1.066406 -4.519531 Z M 3.519531 -4.519531 "/></g></g></g><g fill="#2d2d2d" fill-opacity="1"><g transform="translate(73.788002, 137.889549)"><g><path d="M 4.953125 -2.511719 C 4.953125 -1.941406 4.746094 -1.457031 4.351562 -1.058594 C 3.945312 -0.652344 3.460938 -0.457031 2.894531 -0.457031 C 2.328125 -0.457031 1.84375 -0.652344 1.449219 -1.058594 C 1.042969 -1.457031 0.84375 -1.941406 0.84375 -2.511719 C 0.84375 -3.070312 1.042969 -3.558594 1.449219 -3.960938 C 1.84375 -4.359375 2.328125 -4.5625 2.894531 -4.5625 C 3.460938 -4.5625 3.945312 -4.359375 4.351562 -3.960938 C 4.746094 -3.558594 4.953125 -3.070312 4.953125 -2.511719 Z M 5.46875 -2.511719 C 5.46875 -2.867188 5.394531 -3.195312 5.261719 -3.511719 C 5.128906 -3.820312 4.945312 -4.09375 4.710938 -4.328125 C 4.476562 -4.554688 4.203125 -4.738281 3.894531 -4.871094 C 3.578125 -5.003906 3.25 -5.078125 2.894531 -5.078125 C 2.542969 -5.078125 2.203125 -5.003906 1.894531 -4.871094 C 1.585938 -4.738281 1.316406 -4.554688 1.082031 -4.328125 C 0.84375 -4.09375 0.660156 -3.820312 0.527344 -3.511719 C 0.398438 -3.195312 0.332031 -2.867188 0.332031 -2.511719 C 0.332031 -2.160156 0.398438 -1.824219 0.527344 -1.515625 C 0.660156 -1.199219 0.84375 -0.925781 1.082031 -0.691406 C 1.316406 -0.457031 1.585938 -0.273438 1.894531 -0.140625 C 2.203125 -0.0078125 2.542969 0.0585938 2.894531 0.0585938 C 3.25 0.0585938 3.578125 -0.0078125 3.894531 -0.140625 C 4.203125 -0.273438 4.476562 -0.457031 4.710938 -0.691406 C 4.945312 -0.925781 5.128906 -1.199219 5.261719 -1.515625 C 5.394531 -1.824219 5.46875 -2.160156 5.46875 -2.511719 Z M 5.46875 -2.511719 "/></g></g></g><g fill="#2d2d2d" fill-opacity="1"><g transform="translate(80.452507, 137.889549)"><g><path d="M 1.066406 -2.46875 L 1.066406 -4.503906 L 2.226562 -4.503906 C 2.527344 -4.503906 2.769531 -4.410156 2.953125 -4.21875 C 3.128906 -4.027344 3.226562 -3.792969 3.226562 -3.5 C 3.226562 -3.203125 3.128906 -2.960938 2.941406 -2.761719 C 2.75 -2.566406 2.511719 -2.46875 2.226562 -2.46875 Z M 3.742188 -3.492188 C 3.742188 -3.917969 3.578125 -4.285156 3.269531 -4.570312 C 2.96875 -4.851562 2.59375 -4.996094 2.152344 -4.996094 L 0.550781 -4.996094 L 0.550781 0 L 1.066406 0 L 1.066406 -1.976562 L 1.660156 -1.976562 L 3.128906 0 L 3.820312 0 L 2.277344 -1.976562 C 2.667969 -2 3 -2.136719 3.269531 -2.394531 C 3.578125 -2.683594 3.742188 -3.050781 3.742188 -3.492188 Z M 3.742188 -3.492188 "/></g></g></g><g fill="#2d2d2d" fill-opacity="1"><g transform="translate(85.31688, 137.889549)"><g/></g></g><g fill="#2d2d2d" fill-opacity="1"><g transform="translate(88.168048, 137.889549)"><g><path d="M 3.519531 0 L 3.519531 -0.476562 L 1.066406 -0.476562 L 1.066406 -2.257812 L 3.445312 -2.257812 L 3.445312 -2.742188 L 1.066406 -2.742188 L 1.066406 -4.519531 L 3.519531 -4.519531 L 3.519531 -4.996094 L 0.550781 -4.996094 L 0.550781 0 Z M 3.519531 0 "/></g></g></g><g fill="#2d2d2d" fill-opacity="1"><g transform="translate(93.105896, 137.889549)"><g><path d="M 2.34375 0.300781 L 4.609375 -4.996094 L 4.050781 -4.996094 L 2.34375 -0.96875 L 0.632812 -4.996094 L 0.0742188 -4.996094 Z M 2.34375 0.300781 "/></g></g></g><g fill="#2d2d2d" fill-opacity="1"><g transform="translate(98.653583, 137.889549)"><g><path d="M 3.519531 0 L 3.519531 -0.476562 L 1.066406 -0.476562 L 1.066406 -2.257812 L 3.445312 -2.257812 L 3.445312 -2.742188 L 1.066406 -2.742188 L 1.066406 -4.519531 L 3.519531 -4.519531 L 3.519531 -4.996094 L 0.550781 -4.996094 L 0.550781 0 Z M 3.519531 0 "/></g></g></g><g fill="#2d2d2d" fill-opacity="1"><g transform="translate(103.591431, 137.889549)"><g><path d="M 1.066406 -2.46875 L 1.066406 -4.503906 L 2.226562 -4.503906 C 2.527344 -4.503906 2.769531 -4.410156 2.953125 -4.21875 C 3.128906 -4.027344 3.226562 -3.792969 3.226562 -3.5 C 3.226562 -3.203125 3.128906 -2.960938 2.941406 -2.761719 C 2.75 -2.566406 2.511719 -2.46875 2.226562 -2.46875 Z M 3.742188 -3.492188 C 3.742188 -3.917969 3.578125 -4.285156 3.269531 -4.570312 C 2.96875 -4.851562 2.59375 -4.996094 2.152344 -4.996094 L 0.550781 -4.996094 L 0.550781 0 L 1.066406 0 L 1.066406 -1.976562 L 1.660156 -1.976562 L 3.128906 0 L 3.820312 0 L 2.277344 -1.976562 C 2.667969 -2 3 -2.136719 3.269531 -2.394531 C 3.578125 -2.683594 3.742188 -3.050781 3.742188 -3.492188 Z M 3.742188 -3.492188 "/></g></g></g><g fill="#2d2d2d" fill-opacity="1"><g transform="translate(108.455805, 137.889549)"><g><path d="M 2.484375 -2.351562 L 4.371094 -4.996094 L 3.71875 -4.996094 L 2.226562 -2.859375 L 0.734375 -4.996094 L 0.0742188 -4.996094 L 1.96875 -2.34375 L 1.96875 0 L 2.484375 0 Z M 2.484375 -2.351562 "/></g></g></g><g fill="#2d2d2d" fill-opacity="1"><g transform="translate(113.768373, 137.889549)"><g><path d="M 4.953125 -2.511719 C 4.953125 -1.941406 4.746094 -1.457031 4.351562 -1.058594 C 3.945312 -0.652344 3.460938 -0.457031 2.894531 -0.457031 C 2.328125 -0.457031 1.84375 -0.652344 1.449219 -1.058594 C 1.042969 -1.457031 0.84375 -1.941406 0.84375 -2.511719 C 0.84375 -3.070312 1.042969 -3.558594 1.449219 -3.960938 C 1.84375 -4.359375 2.328125 -4.5625 2.894531 -4.5625 C 3.460938 -4.5625 3.945312 -4.359375 4.351562 -3.960938 C 4.746094 -3.558594 4.953125 -3.070312 4.953125 -2.511719 Z M 5.46875 -2.511719 C 5.46875 -2.867188 5.394531 -3.195312 5.261719 -3.511719 C 5.128906 -3.820312 4.945312 -4.09375 4.710938 -4.328125 C 4.476562 -4.554688 4.203125 -4.738281 3.894531 -4.871094 C 3.578125 -5.003906 3.25 -5.078125 2.894531 -5.078125 C 2.542969 -5.078125 2.203125 -5.003906 1.894531 -4.871094 C 1.585938 -4.738281 1.316406 -4.554688 1.082031 -4.328125 C 0.84375 -4.09375 0.660156 -3.820312 0.527344 -3.511719 C 0.398438 -3.195312 0.332031 -2.867188 0.332031 -2.511719 C 0.332031 -2.160156 0.398438 -1.824219 0.527344 -1.515625 C 0.660156 -1.199219 0.84375 -0.925781 1.082031 -0.691406 C 1.316406 -0.457031 1.585938 -0.273438 1.894531 -0.140625 C 2.203125 -0.0078125 2.542969 0.0585938 2.894531 0.0585938 C 3.25 0.0585938 3.578125 -0.0078125 3.894531 -0.140625 C 4.203125 -0.273438 4.476562 -0.457031 4.710938 -0.691406 C 4.945312 -0.925781 5.128906 -1.199219 5.261719 -1.515625 C 5.394531 -1.824219 5.46875 -2.160156 5.46875 -2.511719 Z M 5.46875 -2.511719 "/></g></g></g><g fill="#2d2d2d" fill-opacity="1"><g transform="translate(120.432882, 137.889549)"><g><path d="M 1.066406 -3.683594 L 3.871094 0.308594 L 3.871094 -4.996094 L 3.359375 -4.996094 L 3.359375 -1.324219 L 0.550781 -5.3125 L 0.550781 0 L 1.066406 0 Z M 1.066406 -3.683594 "/></g></g></g><g fill="#2d2d2d" fill-opacity="1"><g transform="translate(125.723416, 137.889549)"><g><path d="M 3.519531 0 L 3.519531 -0.476562 L 1.066406 -0.476562 L 1.066406 -2.257812 L 3.445312 -2.257812 L 3.445312 -2.742188 L 1.066406 -2.742188 L 1.066406 -4.519531 L 3.519531 -4.519531 L 3.519531 -4.996094 L 0.550781 -4.996094 L 0.550781 0 Z M 3.519531 0 "/></g></g></g></svg>